<svg width="103" height="126" viewBox="0 0 103 126" fill="none" xmlns="http://www.w3.org/2000/svg">
<g id="Group 8">
<g id="Group 13">
<g id="Group 11">
<rect id="Rectangle 20" x="79.8686" y="21.2957" width="7.83264" height="7.83264" transform="rotate(45 79.8686 21.2957)" fill="#987C7C" fill-opacity="0.05"/>
<g id="Group 9">
<g id="Group 5">
<g id="Group 4">
<circle id="Ellipse 2" cx="9.80433" cy="9.19715" r="5.37715" fill="#987C7C" fill-opacity="0.05"/>
<rect id="Rectangle 20_2" x="27.4414" y="3.82001" width="7.83264" height="7.83264" transform="rotate(45 27.4414 3.82001)" fill="#987C7C" fill-opacity="0.05"/>
</g>
</g>
<g id="Group 6">
<g id="Group 4_2">
<circle id="Ellipse 2_2" cx="44.7557" cy="9.19715" r="5.37715" fill="#987C7C" fill-opacity="0.05"/>
<rect id="Rectangle 20_3" x="62.3929" y="3.82001" width="7.83264" height="7.83264" transform="rotate(45 62.3929 3.82001)" fill="#987C7C" fill-opacity="0.05"/>
</g>
</g>
<g id="Group 4_3">
<circle id="Ellipse 2_3" cx="79.7072" cy="9.19715" r="5.37715" fill="#987C7C" fill-opacity="0.05"/>
<rect id="Rectangle 20_4" x="97.3443" y="3.82001" width="7.83264" height="7.83264" transform="rotate(45 97.3443 3.82001)" fill="#987C7C" fill-opacity="0.05"/>
</g>
</g>
<g id="Group 10">
<g id="Group 5_2">
<rect id="Rectangle 19" x="9.9657" y="21.2957" width="7.83264" height="7.83264" transform="rotate(45 9.9657 21.2957)" fill="#987C7C" fill-opacity="0.05"/>
<g id="Group 4_4">
<circle id="Ellipse 2_4" cx="9.80433" cy="45.4929" r="5.37715" fill="#987C7C" fill-opacity="0.05"/>
<rect id="Rectangle 20_5" x="27.4414" y="40.1157" width="7.83264" height="7.83264" transform="rotate(45 27.4414 40.1157)" fill="#987C7C" fill-opacity="0.05"/>
</g>
</g>
<g id="Group 6_2">
<circle id="Ellipse 1" cx="27.28" cy="26.6729" r="5.37715" fill="#987C7C" fill-opacity="0.05"/>
<rect id="Rectangle 19_2" x="44.9171" y="21.2957" width="7.83264" height="7.83264" transform="rotate(45 44.9171 21.2957)" fill="#987C7C" fill-opacity="0.05"/>
<g id="Group 4_5">
<circle id="Ellipse 2_5" cx="44.7557" cy="45.4929" r="5.37715" fill="#987C7C" fill-opacity="0.05"/>
<rect id="Rectangle 20_6" x="62.3929" y="40.1157" width="7.83264" height="7.83264" transform="rotate(45 62.3929 40.1157)" fill="#987C7C" fill-opacity="0.05"/>
</g>
</g>
<circle id="Ellipse 1_2" cx="62.2315" cy="26.6729" r="5.37715" fill="#987C7C" fill-opacity="0.05"/>
<circle id="Ellipse 2_6" cx="97.1829" cy="26.6729" r="5.37715" fill="#987C7C" fill-opacity="0.05"/>
<g id="Group 4_6">
<circle id="Ellipse 2_7" cx="79.7072" cy="45.4929" r="5.37715" fill="#987C7C" fill-opacity="0.05"/>
<rect id="Rectangle 20_7" x="97.3443" y="40.1157" width="7.83264" height="7.83264" transform="rotate(45 97.3443 40.1157)" fill="#987C7C" fill-opacity="0.05"/>
</g>
</g>
</g>
<g id="Group 12">
<rect id="Rectangle 19_3" x="79.8686" y="58.9357" width="7.83264" height="7.83264" transform="rotate(45 79.8686 58.9357)" fill="#987C7C" fill-opacity="0.05"/>
<rect id="Rectangle 20_8" x="79.8686" y="95.2314" width="7.83264" height="7.83264" transform="rotate(45 79.8686 95.2314)" fill="#987C7C" fill-opacity="0.05"/>
<g id="Group 9_2">
<g id="Group 5_3">
<rect id="Rectangle 19_4" x="9.9657" y="58.9357" width="7.83264" height="7.83264" transform="rotate(45 9.9657 58.9357)" fill="#987C7C" fill-opacity="0.05"/>
<g id="Group 4_7">
<circle id="Ellipse 2_8" cx="9.80433" cy="83.1329" r="5.37715" fill="#987C7C" fill-opacity="0.05"/>
<rect id="Rectangle 20_9" x="27.4414" y="77.7557" width="7.83264" height="7.83264" transform="rotate(45 27.4414 77.7557)" fill="#987C7C" fill-opacity="0.05"/>
</g>
</g>
<g id="Group 6_3">
<circle id="Ellipse 1_3" cx="27.28" cy="64.3129" r="5.37715" fill="#987C7C" fill-opacity="0.05"/>
<rect id="Rectangle 19_5" x="44.9171" y="58.9357" width="7.83264" height="7.83264" transform="rotate(45 44.9171 58.9357)" fill="#987C7C" fill-opacity="0.05"/>
<g id="Group 4_8">
<circle id="Ellipse 2_9" cx="44.7557" cy="83.1329" r="5.37715" fill="#987C7C" fill-opacity="0.05"/>
<rect id="Rectangle 20_10" x="62.3929" y="77.7557" width="7.83264" height="7.83264" transform="rotate(45 62.3929 77.7557)" fill="#987C7C" fill-opacity="0.05"/>
</g>
</g>
<circle id="Ellipse 1_4" cx="62.2315" cy="64.3129" r="5.37715" fill="#987C7C" fill-opacity="0.05"/>
<circle id="Ellipse 2_10" cx="97.1829" cy="64.3129" r="5.37715" fill="#987C7C" fill-opacity="0.05"/>
<g id="Group 4_9">
<circle id="Ellipse 2_11" cx="79.7072" cy="83.1329" r="5.37715" fill="#987C7C" fill-opacity="0.05"/>
<rect id="Rectangle 20_11" x="97.3443" y="77.7557" width="7.83264" height="7.83264" transform="rotate(45 97.3443 77.7557)" fill="#987C7C" fill-opacity="0.05"/>
</g>
</g>
<g id="Group 10_2">
<g id="Group 5_4">
<rect id="Rectangle 19_6" x="9.9657" y="95.2314" width="7.83264" height="7.83264" transform="rotate(45 9.9657 95.2314)" fill="#987C7C" fill-opacity="0.05"/>
<g id="Group 4_10">
<circle id="Ellipse 2_12" cx="9.80433" cy="119.429" r="5.37715" fill="#987C7C" fill-opacity="0.05"/>
<rect id="Rectangle 20_12" x="27.4414" y="114.051" width="7.83264" height="7.83264" transform="rotate(45 27.4414 114.051)" fill="#987C7C" fill-opacity="0.05"/>
</g>
</g>
<g id="Group 6_4">
<circle id="Ellipse 1_5" cx="27.28" cy="100.609" r="5.37715" fill="#987C7C" fill-opacity="0.05"/>
<rect id="Rectangle 19_7" x="44.9171" y="95.2314" width="7.83264" height="7.83264" transform="rotate(45 44.9171 95.2314)" fill="#987C7C" fill-opacity="0.05"/>
<g id="Group 4_11">
<circle id="Ellipse 2_13" cx="44.7557" cy="119.429" r="5.37715" fill="#987C7C" fill-opacity="0.05"/>
<rect id="Rectangle 20_13" x="62.3929" y="114.051" width="7.83264" height="7.83264" transform="rotate(45 62.3929 114.051)" fill="#987C7C" fill-opacity="0.05"/>
</g>
</g>
<circle id="Ellipse 1_6" cx="62.2315" cy="100.609" r="5.37715" fill="#987C7C" fill-opacity="0.05"/>
<circle id="Ellipse 2_14" cx="97.1829" cy="100.609" r="5.37715" fill="#987C7C" fill-opacity="0.05"/>
<g id="Group 4_12">
<circle id="Ellipse 2_15" cx="79.7072" cy="119.429" r="5.37715" fill="#987C7C" fill-opacity="0.05"/>
<rect id="Rectangle 20_14" x="97.3443" y="114.051" width="7.83264" height="7.83264" transform="rotate(45 97.3443 114.051)" fill="#987C7C" fill-opacity="0.05"/>
</g>
</g>
</g>
</g>
</g>
</svg>
